<?xml version="1.0" encoding="UTF-8"?>
<svg xmlns="http://www.w3.org/2000/svg" id="Layer_1" data-name="Layer 1" viewBox="0 0 24 24">
  <path d="m21,7.805c.518-.575.959-1.235,1.281-1.986l1.757-3.728-2.022-2.091-.592.494c-1.166.971-2.644,1.506-4.162,1.506H6.737c-1.518,0-2.996-.535-4.162-1.506l-.592-.494L-.038,2.091l1.757,3.728c.322.751.763,1.411,1.281,1.986v4.195H1v3h2v9h3v-9h12v9h3v-9h2v-3h-2v-4.195Zm-14.263-2.805h10.526c.812,0,1.615-.107,2.392-.31-.627,1.404-2.014,2.31-3.555,2.31H7.9c-1.541,0-2.928-.906-3.555-2.31.777.202,1.58.31,2.392.31Zm-.737,4.722c.602.179,1.237.278,1.9.278h2.6v2h-4.5v-2.278Zm7.5,2.278v-2h2.6c.663,0,1.298-.1,1.9-.278v2.278h-4.5Z"/>
</svg>
